<svg xmlns="http://www.w3.org/2000/svg" width="720" height="840" viewBox="0 0 720 840"><rect width="100%" height="100%" fill="#fafafa"/><rect x="25" y="25" width="300" height="155" rx="22" fill="#fff" stroke="#ddd"/><image href="stripe.svg" x="25" y="25" width="300" height="155" preserveAspectRatio="xMidYMid slice"/><text x="25" y="205" font-family="Arial, sans-serif" font-size="20" fill="#555">stripe.svg</text><rect x="375" y="25" width="300" height="155" rx="22" fill="#fff" stroke="#ddd"/><image href="liquid.svg" x="375" y="25" width="300" height="155" preserveAspectRatio="xMidYMid slice"/><text x="375" y="205" font-family="Arial, sans-serif" font-size="20" fill="#555">liquid.svg</text><rect x="25" y="225" width="300" height="155" rx="22" fill="#fff" stroke="#ddd"/><image href="warp.svg" x="25" y="225" width="300" height="155" preserveAspectRatio="xMidYMid slice"/><text x="25" y="405" font-family="Arial, sans-serif" font-size="20" fill="#555">warp.svg</text><rect x="375" y="225" width="300" height="155" rx="22" fill="#fff" stroke="#ddd"/><image href="noise.svg" x="375" y="225" width="300" height="155" preserveAspectRatio="xMidYMid slice"/><text x="375" y="405" font-family="Arial, sans-serif" font-size="20" fill="#555">noise.svg</text><rect x="25" y="425" width="300" height="155" rx="22" fill="#fff" stroke="#ddd"/><image href="starlight.svg" x="25" y="425" width="300" height="155" preserveAspectRatio="xMidYMid slice"/><text x="25" y="605" font-family="Arial, sans-serif" font-size="20" fill="#555">starlight.svg</text><rect x="375" y="425" width="300" height="155" rx="22" fill="#fff" stroke="#ddd"/><image href="dots.svg" x="375" y="425" width="300" height="155" preserveAspectRatio="xMidYMid slice"/><text x="375" y="605" font-family="Arial, sans-serif" font-size="20" fill="#555">dots.svg</text><rect x="25" y="625" width="300" height="155" rx="22" fill="#fff" stroke="#ddd"/><image href="dots-2.svg" x="25" y="625" width="300" height="155" preserveAspectRatio="xMidYMid slice"/><text x="25" y="805" font-family="Arial, sans-serif" font-size="20" fill="#555">dots-2.svg</text><rect x="375" y="625" width="300" height="155" rx="22" fill="#fff" stroke="#ddd"/><image href="define.svg" x="375" y="625" width="300" height="155" preserveAspectRatio="xMidYMid slice"/><text x="375" y="805" font-family="Arial, sans-serif" font-size="20" fill="#555">define.svg</text></svg>