<svg xmlns="http://www.w3.org/2000/svg" width="256" height="256" viewBox="0 0 256 256"><g stroke="#6e6e6e" stroke-opacity=".10" fill="#6e6e6e" fill-opacity=".12"><g transform="translate(36 50)"><circle r="2"/><path d="M-10 0H10M0 -10V10"/></g><g transform="translate(122 30)"><circle r="2"/><path d="M-8 0H8M0 -8V8"/></g><g transform="translate(205 55)"><circle r="2"/><path d="M-11 0H11M0 -11V11"/></g><g transform="translate(70 125)"><circle r="2"/><path d="M-9 0H9M0 -9V9"/></g><g transform="translate(175 110)"><circle r="2"/><path d="M-12 0H12M0 -12V12"/></g><g transform="translate(42 212)"><circle r="2"/><path d="M-8 0H8M0 -8V8"/></g><g transform="translate(132 188)"><circle r="2"/><path d="M-10 0H10M0 -10V10"/></g><g transform="translate(220 210)"><circle r="2"/><path d="M-9 0H9M0 -9V9"/></g></g></svg>