<svg xmlns="http://www.w3.org/2000/svg" width="256" height="256" viewBox="0 0 256 256"><g stroke="#6e6e6e" stroke-opacity=".12" stroke-width="8"><path d="M-256 0 L0 256"/><path d="M-208 0 L48 256"/><path d="M-160 0 L96 256"/><path d="M-112 0 L144 256"/><path d="M-64 0 L192 256"/><path d="M-16 0 L240 256"/><path d="M32 0 L288 256"/><path d="M80 0 L336 256"/><path d="M128 0 L384 256"/><path d="M176 0 L432 256"/><path d="M224 0 L480 256"/><path d="M272 0 L528 256"/><path d="M320 0 L576 256"/><path d="M368 0 L624 256"/><path d="M416 0 L672 256"/><path d="M464 0 L720 256"/><path d="M512 0 L768 256"/></g></svg>