<svg xmlns="http://www.w3.org/2000/svg" width="256" height="256" viewBox="0 0 256 256"><g fill="none" stroke="#707070" stroke-opacity=".09" stroke-width="2.5"><path d="M-20 24 C40 4 88 44 150 24 S260 4 300 24"/><path d="M-20 72 C40 52 88 92 150 72 S260 52 300 72"/><path d="M-20 120 C40 100 88 140 150 120 S260 100 300 120"/><path d="M-20 168 C40 148 88 188 150 168 S260 148 300 168"/><path d="M-20 216 C40 196 88 236 150 216 S260 196 300 216"/><path d="M24 -20 C4 40 44 88 24 150 S4 260 24 300"/><path d="M80 -20 C60 40 100 88 80 150 S60 260 80 300"/><path d="M136 -20 C116 40 156 88 136 150 S116 260 136 300"/><path d="M192 -20 C172 40 212 88 192 150 S172 260 192 300"/><path d="M248 -20 C228 40 268 88 248 150 S228 260 248 300"/></g></svg>